<svg width="36" height="36" viewBox="0 0 36 36" fill="none" xmlns="http://www.w3.org/2000/svg">
<path d="M19.065 24.435L18.84 24.255C18.7564 24.1982 18.6656 24.1528 18.57 24.12L18.3 24C18.0567 23.9491 17.8046 23.9595 17.5664 24.0302C17.3281 24.1009 17.1112 24.2297 16.935 24.405C16.8025 24.5508 16.696 24.7182 16.62 24.9C16.5065 25.1733 16.4763 25.4741 16.5334 25.7645C16.5904 26.0549 16.7321 26.3219 16.9405 26.532C17.149 26.742 17.4149 26.8857 17.7049 26.945C17.9948 27.0042 18.2958 26.9764 18.57 26.865C18.7492 26.778 18.9158 26.667 19.065 26.535C19.2731 26.3241 19.4141 26.0562 19.4702 25.7652C19.5263 25.4742 19.4949 25.1732 19.38 24.9C19.3052 24.7265 19.1983 24.5688 19.065 24.435ZM24 3H12C10.8065 3 9.66193 3.47411 8.81802 4.31802C7.97411 5.16193 7.5 6.30653 7.5 7.5V28.5C7.5 29.6935 7.97411 30.8381 8.81802 31.682C9.66193 32.5259 10.8065 33 12 33H24C25.1935 33 26.3381 32.5259 27.182 31.682C28.0259 30.8381 28.5 29.6935 28.5 28.5V7.5C28.5 6.30653 28.0259 5.16193 27.182 4.31802C26.3381 3.47411 25.1935 3 24 3ZM25.5 28.5C25.5 28.8978 25.342 29.2794 25.0607 29.5607C24.7794 29.842 24.3978 30 24 30H12C11.6022 30 11.2206 29.842 10.9393 29.5607C10.658 29.2794 10.5 28.8978 10.5 28.5V7.5C10.5 7.10218 10.658 6.72064 10.9393 6.43934C11.2206 6.15804 11.6022 6 12 6H24C24.3978 6 24.7794 6.15804 25.0607 6.43934C25.342 6.72064 25.5 7.10218 25.5 7.5V28.5Z" fill="#080A3C"/>
</svg>
