<svg width="36" height="36" viewBox="0 0 36 36" fill="none" xmlns="http://www.w3.org/2000/svg">
<path d="M10.5 10.5C10.2033 10.5 9.91332 10.588 9.66665 10.7528C9.41997 10.9176 9.22771 11.1519 9.11418 11.426C9.00065 11.7001 8.97094 12.0017 9.02882 12.2926C9.0867 12.5836 9.22956 12.8509 9.43934 13.0607C9.64912 13.2704 9.91639 13.4133 10.2074 13.4712C10.4983 13.5291 10.7999 13.4993 11.074 13.3858C11.3481 13.2723 11.5824 13.08 11.7472 12.8334C11.912 12.5867 12 12.2967 12 12C12 11.6022 11.842 11.2206 11.5607 10.9393C11.2794 10.658 10.8978 10.5 10.5 10.5ZM10.5 16.5C10.2033 16.5 9.91332 16.588 9.66665 16.7528C9.41997 16.9176 9.22771 17.1519 9.11418 17.426C9.00065 17.7001 8.97094 18.0017 9.02882 18.2926C9.0867 18.5836 9.22956 18.8509 9.43934 19.0607C9.64912 19.2704 9.91639 19.4133 10.2074 19.4712C10.4983 19.5291 10.7999 19.4993 11.074 19.3858C11.3481 19.2723 11.5824 19.08 11.7472 18.8334C11.912 18.5867 12 18.2967 12 18C12 17.6022 11.842 17.2206 11.5607 16.9393C11.2794 16.658 10.8978 16.5 10.5 16.5ZM25.5 16.5H16.5C16.1022 16.5 15.7206 16.658 15.4393 16.9393C15.158 17.2206 15 17.6022 15 18C15 18.3978 15.158 18.7794 15.4393 19.0607C15.7206 19.342 16.1022 19.5 16.5 19.5H25.5C25.8978 19.5 26.2794 19.342 26.5607 19.0607C26.842 18.7794 27 18.3978 27 18C27 17.6022 26.842 17.2206 26.5607 16.9393C26.2794 16.658 25.8978 16.5 25.5 16.5ZM25.5 10.5H16.5C16.1022 10.5 15.7206 10.658 15.4393 10.9393C15.158 11.2206 15 11.6022 15 12C15 12.3978 15.158 12.7794 15.4393 13.0607C15.7206 13.342 16.1022 13.5 16.5 13.5H25.5C25.8978 13.5 26.2794 13.342 26.5607 13.0607C26.842 12.7794 27 12.3978 27 12C27 11.6022 26.842 11.2206 26.5607 10.9393C26.2794 10.658 25.8978 10.5 25.5 10.5ZM28.5 3H7.5C6.30653 3 5.16193 3.47411 4.31802 4.31802C3.47411 5.16193 3 6.30653 3 7.5V22.5C3 23.6935 3.47411 24.8381 4.31802 25.682C5.16193 26.5259 6.30653 27 7.5 27H24.885L30.435 32.565C30.5752 32.704 30.7414 32.814 30.9241 32.8887C31.1069 32.9633 31.3026 33.0011 31.5 33C31.6968 33.0051 31.892 32.964 32.07 32.88C32.3439 32.7675 32.5784 32.5764 32.7439 32.3308C32.9094 32.0852 32.9985 31.7961 33 31.5V7.5C33 6.30653 32.5259 5.16193 31.682 4.31802C30.8381 3.47411 29.6935 3 28.5 3ZM30 27.885L26.565 24.435C26.4248 24.296 26.2586 24.186 26.0759 24.1113C25.8931 24.0367 25.6974 23.9989 25.5 24H7.5C7.10218 24 6.72064 23.842 6.43934 23.5607C6.15804 23.2794 6 22.8978 6 22.5V7.5C6 7.10217 6.15804 6.72064 6.43934 6.43934C6.72064 6.15804 7.10218 6 7.5 6H28.5C28.8978 6 29.2794 6.15804 29.5607 6.43934C29.842 6.72064 30 7.10217 30 7.5V27.885Z" fill="#080A3C"/>
</svg>
